<mxfile host="Electron" agent="Mozilla/5.0 (Windows NT 10.0; Win64; x64) AppleWebKit/537.36 (KHTML, like Gecko) draw.io/28.1.2 Chrome/138.0.7204.243 Electron/37.4.0 Safari/537.36" version="28.1.2">
  <diagram name="Page-1" id="bghGz0dea05iVnj52zpA">
    <mxGraphModel dx="1721" dy="457" grid="0" gridSize="10" guides="1" tooltips="1" connect="1" arrows="1" fold="1" page="0" pageScale="1" pageWidth="850" pageHeight="1100" math="0" shadow="0">
      <root>
        <mxCell id="0" />
        <mxCell id="1" parent="0" />
        <mxCell id="sDfF-1kNxR6XN9tMnFlE-4" value="&lt;span style=&quot;font-weight: 400; text-wrap-mode: wrap;&quot;&gt;User&lt;/span&gt;" style="shape=table;startSize=27;container=1;collapsible=1;childLayout=tableLayout;fixedRows=1;rowLines=0;fontStyle=1;align=center;resizeLast=1;html=1;fontFamily=Architects Daughter;fontSource=https%3A%2F%2Ffonts.googleapis.com%2Fcss%3Ffamily%3DArchitects%2BDaughter;" parent="1" vertex="1">
          <mxGeometry x="-465" y="306" width="180" height="150" as="geometry">
            <mxRectangle x="-228" y="354" width="64" height="30" as="alternateBounds" />
          </mxGeometry>
        </mxCell>
        <mxCell id="sDfF-1kNxR6XN9tMnFlE-5" value="" style="shape=tableRow;horizontal=0;startSize=0;swimlaneHead=0;swimlaneBody=0;fillColor=none;collapsible=0;dropTarget=0;points=[[0,0.5],[1,0.5]];portConstraint=eastwest;top=0;left=0;right=0;bottom=1;fontFamily=Architects Daughter;fontSource=https%3A%2F%2Ffonts.googleapis.com%2Fcss%3Ffamily%3DArchitects%2BDaughter;" parent="sDfF-1kNxR6XN9tMnFlE-4" vertex="1">
          <mxGeometry y="27" width="180" height="30" as="geometry" />
        </mxCell>
        <mxCell id="sDfF-1kNxR6XN9tMnFlE-6" value="PK" style="shape=partialRectangle;connectable=0;fillColor=none;top=0;left=0;bottom=0;right=0;fontStyle=1;overflow=hidden;whiteSpace=wrap;html=1;fontFamily=Architects Daughter;fontSource=https%3A%2F%2Ffonts.googleapis.com%2Fcss%3Ffamily%3DArchitects%2BDaughter;" parent="sDfF-1kNxR6XN9tMnFlE-5" vertex="1">
          <mxGeometry width="92.85714285714286" height="30" as="geometry">
            <mxRectangle width="92.85714285714286" height="30" as="alternateBounds" />
          </mxGeometry>
        </mxCell>
        <mxCell id="sDfF-1kNxR6XN9tMnFlE-7" value="Id" style="shape=partialRectangle;connectable=0;fillColor=none;top=0;left=0;bottom=0;right=0;align=left;spacingLeft=6;fontStyle=5;overflow=hidden;whiteSpace=wrap;html=1;fontFamily=Architects Daughter;fontSource=https%3A%2F%2Ffonts.googleapis.com%2Fcss%3Ffamily%3DArchitects%2BDaughter;" parent="sDfF-1kNxR6XN9tMnFlE-5" vertex="1">
          <mxGeometry x="92.85714285714286" width="87.14285714285714" height="30" as="geometry">
            <mxRectangle width="87.14285714285714" height="30" as="alternateBounds" />
          </mxGeometry>
        </mxCell>
        <mxCell id="sDfF-1kNxR6XN9tMnFlE-8" value="" style="shape=tableRow;horizontal=0;startSize=0;swimlaneHead=0;swimlaneBody=0;fillColor=none;collapsible=0;dropTarget=0;points=[[0,0.5],[1,0.5]];portConstraint=eastwest;top=0;left=0;right=0;bottom=0;fontFamily=Architects Daughter;fontSource=https%3A%2F%2Ffonts.googleapis.com%2Fcss%3Ffamily%3DArchitects%2BDaughter;" parent="sDfF-1kNxR6XN9tMnFlE-4" vertex="1">
          <mxGeometry y="57" width="180" height="30" as="geometry" />
        </mxCell>
        <mxCell id="sDfF-1kNxR6XN9tMnFlE-9" value="varchar(30)" style="shape=partialRectangle;connectable=0;fillColor=none;top=0;left=0;bottom=0;right=0;editable=1;overflow=hidden;whiteSpace=wrap;html=1;fontFamily=Architects Daughter;fontSource=https%3A%2F%2Ffonts.googleapis.com%2Fcss%3Ffamily%3DArchitects%2BDaughter;" parent="sDfF-1kNxR6XN9tMnFlE-8" vertex="1">
          <mxGeometry width="92.85714285714286" height="30" as="geometry">
            <mxRectangle width="92.85714285714286" height="30" as="alternateBounds" />
          </mxGeometry>
        </mxCell>
        <mxCell id="sDfF-1kNxR6XN9tMnFlE-10" value="UserName" style="shape=partialRectangle;connectable=0;fillColor=none;top=0;left=0;bottom=0;right=0;align=left;spacingLeft=6;overflow=hidden;whiteSpace=wrap;html=1;fontFamily=Architects Daughter;fontSource=https%3A%2F%2Ffonts.googleapis.com%2Fcss%3Ffamily%3DArchitects%2BDaughter;" parent="sDfF-1kNxR6XN9tMnFlE-8" vertex="1">
          <mxGeometry x="92.85714285714286" width="87.14285714285714" height="30" as="geometry">
            <mxRectangle width="87.14285714285714" height="30" as="alternateBounds" />
          </mxGeometry>
        </mxCell>
        <mxCell id="sDfF-1kNxR6XN9tMnFlE-11" value="" style="shape=tableRow;horizontal=0;startSize=0;swimlaneHead=0;swimlaneBody=0;fillColor=none;collapsible=0;dropTarget=0;points=[[0,0.5],[1,0.5]];portConstraint=eastwest;top=0;left=0;right=0;bottom=0;fontFamily=Architects Daughter;fontSource=https%3A%2F%2Ffonts.googleapis.com%2Fcss%3Ffamily%3DArchitects%2BDaughter;" parent="sDfF-1kNxR6XN9tMnFlE-4" vertex="1">
          <mxGeometry y="87" width="180" height="30" as="geometry" />
        </mxCell>
        <mxCell id="sDfF-1kNxR6XN9tMnFlE-12" value="varchar(50)" style="shape=partialRectangle;connectable=0;fillColor=none;top=0;left=0;bottom=0;right=0;editable=1;overflow=hidden;whiteSpace=wrap;html=1;fontFamily=Architects Daughter;fontSource=https%3A%2F%2Ffonts.googleapis.com%2Fcss%3Ffamily%3DArchitects%2BDaughter;" parent="sDfF-1kNxR6XN9tMnFlE-11" vertex="1">
          <mxGeometry width="92.85714285714286" height="30" as="geometry">
            <mxRectangle width="92.85714285714286" height="30" as="alternateBounds" />
          </mxGeometry>
        </mxCell>
        <mxCell id="sDfF-1kNxR6XN9tMnFlE-13" value="Email" style="shape=partialRectangle;connectable=0;fillColor=none;top=0;left=0;bottom=0;right=0;align=left;spacingLeft=6;overflow=hidden;whiteSpace=wrap;html=1;fontFamily=Architects Daughter;fontSource=https%3A%2F%2Ffonts.googleapis.com%2Fcss%3Ffamily%3DArchitects%2BDaughter;" parent="sDfF-1kNxR6XN9tMnFlE-11" vertex="1">
          <mxGeometry x="92.85714285714286" width="87.14285714285714" height="30" as="geometry">
            <mxRectangle width="87.14285714285714" height="30" as="alternateBounds" />
          </mxGeometry>
        </mxCell>
        <mxCell id="sDfF-1kNxR6XN9tMnFlE-14" value="" style="shape=tableRow;horizontal=0;startSize=0;swimlaneHead=0;swimlaneBody=0;fillColor=none;collapsible=0;dropTarget=0;points=[[0,0.5],[1,0.5]];portConstraint=eastwest;top=0;left=0;right=0;bottom=0;fontFamily=Architects Daughter;fontSource=https%3A%2F%2Ffonts.googleapis.com%2Fcss%3Ffamily%3DArchitects%2BDaughter;" parent="sDfF-1kNxR6XN9tMnFlE-4" vertex="1">
          <mxGeometry y="117" width="180" height="30" as="geometry" />
        </mxCell>
        <mxCell id="sDfF-1kNxR6XN9tMnFlE-15" value="" style="shape=partialRectangle;connectable=0;fillColor=none;top=0;left=0;bottom=0;right=0;editable=1;overflow=hidden;whiteSpace=wrap;html=1;fontFamily=Architects Daughter;fontSource=https%3A%2F%2Ffonts.googleapis.com%2Fcss%3Ffamily%3DArchitects%2BDaughter;" parent="sDfF-1kNxR6XN9tMnFlE-14" vertex="1">
          <mxGeometry width="92.85714285714286" height="30" as="geometry">
            <mxRectangle width="92.85714285714286" height="30" as="alternateBounds" />
          </mxGeometry>
        </mxCell>
        <mxCell id="sDfF-1kNxR6XN9tMnFlE-16" value="PassHash" style="shape=partialRectangle;connectable=0;fillColor=none;top=0;left=0;bottom=0;right=0;align=left;spacingLeft=6;overflow=hidden;whiteSpace=wrap;html=1;fontFamily=Architects Daughter;fontSource=https%3A%2F%2Ffonts.googleapis.com%2Fcss%3Ffamily%3DArchitects%2BDaughter;" parent="sDfF-1kNxR6XN9tMnFlE-14" vertex="1">
          <mxGeometry x="92.85714285714286" width="87.14285714285714" height="30" as="geometry">
            <mxRectangle width="87.14285714285714" height="30" as="alternateBounds" />
          </mxGeometry>
        </mxCell>
        <mxCell id="sDfF-1kNxR6XN9tMnFlE-17" value="&lt;span style=&quot;font-weight: 400; text-wrap-mode: wrap;&quot;&gt;Community&lt;/span&gt;" style="shape=table;startSize=34;container=1;collapsible=1;childLayout=tableLayout;fixedRows=1;rowLines=0;fontStyle=1;align=center;resizeLast=1;html=1;fontFamily=Architects Daughter;fontSource=https%3A%2F%2Ffonts.googleapis.com%2Fcss%3Ffamily%3DArchitects%2BDaughter;" parent="1" vertex="1">
          <mxGeometry x="80" y="301" width="217.31395348837222" height="155" as="geometry">
            <mxRectangle x="-228" y="354" width="64" height="30" as="alternateBounds" />
          </mxGeometry>
        </mxCell>
        <mxCell id="sDfF-1kNxR6XN9tMnFlE-18" value="" style="shape=tableRow;horizontal=0;startSize=0;swimlaneHead=0;swimlaneBody=0;fillColor=none;collapsible=0;dropTarget=0;points=[[0,0.5],[1,0.5]];portConstraint=eastwest;top=0;left=0;right=0;bottom=1;fontFamily=Architects Daughter;fontSource=https%3A%2F%2Ffonts.googleapis.com%2Fcss%3Ffamily%3DArchitects%2BDaughter;" parent="sDfF-1kNxR6XN9tMnFlE-17" vertex="1">
          <mxGeometry y="34" width="217.31395348837222" height="31" as="geometry" />
        </mxCell>
        <mxCell id="sDfF-1kNxR6XN9tMnFlE-19" value="PK" style="shape=partialRectangle;connectable=0;fillColor=none;top=0;left=0;bottom=0;right=0;fontStyle=1;overflow=hidden;whiteSpace=wrap;html=1;fontFamily=Architects Daughter;fontSource=https%3A%2F%2Ffonts.googleapis.com%2Fcss%3Ffamily%3DArchitects%2BDaughter;" parent="sDfF-1kNxR6XN9tMnFlE-18" vertex="1">
          <mxGeometry width="84.85714285714286" height="31" as="geometry">
            <mxRectangle width="84.85714285714286" height="31" as="alternateBounds" />
          </mxGeometry>
        </mxCell>
        <mxCell id="sDfF-1kNxR6XN9tMnFlE-20" value="Id" style="shape=partialRectangle;connectable=0;fillColor=none;top=0;left=0;bottom=0;right=0;align=left;spacingLeft=6;fontStyle=5;overflow=hidden;whiteSpace=wrap;html=1;fontFamily=Architects Daughter;fontSource=https%3A%2F%2Ffonts.googleapis.com%2Fcss%3Ffamily%3DArchitects%2BDaughter;" parent="sDfF-1kNxR6XN9tMnFlE-18" vertex="1">
          <mxGeometry x="84.85714285714286" width="132.45681063122936" height="31" as="geometry">
            <mxRectangle width="132.45681063122936" height="31" as="alternateBounds" />
          </mxGeometry>
        </mxCell>
        <mxCell id="sDfF-1kNxR6XN9tMnFlE-21" value="" style="shape=tableRow;horizontal=0;startSize=0;swimlaneHead=0;swimlaneBody=0;fillColor=none;collapsible=0;dropTarget=0;points=[[0,0.5],[1,0.5]];portConstraint=eastwest;top=0;left=0;right=0;bottom=0;fontFamily=Architects Daughter;fontSource=https%3A%2F%2Ffonts.googleapis.com%2Fcss%3Ffamily%3DArchitects%2BDaughter;" parent="sDfF-1kNxR6XN9tMnFlE-17" vertex="1">
          <mxGeometry y="65" width="217.31395348837222" height="30" as="geometry" />
        </mxCell>
        <mxCell id="sDfF-1kNxR6XN9tMnFlE-22" value="nvarchar(30)" style="shape=partialRectangle;connectable=0;fillColor=none;top=0;left=0;bottom=0;right=0;editable=1;overflow=hidden;whiteSpace=wrap;html=1;fontFamily=Architects Daughter;fontSource=https%3A%2F%2Ffonts.googleapis.com%2Fcss%3Ffamily%3DArchitects%2BDaughter;" parent="sDfF-1kNxR6XN9tMnFlE-21" vertex="1">
          <mxGeometry width="84.85714285714286" height="30" as="geometry">
            <mxRectangle width="84.85714285714286" height="30" as="alternateBounds" />
          </mxGeometry>
        </mxCell>
        <mxCell id="sDfF-1kNxR6XN9tMnFlE-23" value="Name" style="shape=partialRectangle;connectable=0;fillColor=none;top=0;left=0;bottom=0;right=0;align=left;spacingLeft=6;overflow=hidden;whiteSpace=wrap;html=1;fontFamily=Architects Daughter;fontSource=https%3A%2F%2Ffonts.googleapis.com%2Fcss%3Ffamily%3DArchitects%2BDaughter;" parent="sDfF-1kNxR6XN9tMnFlE-21" vertex="1">
          <mxGeometry x="84.85714285714286" width="132.45681063122936" height="30" as="geometry">
            <mxRectangle width="132.45681063122936" height="30" as="alternateBounds" />
          </mxGeometry>
        </mxCell>
        <mxCell id="sDfF-1kNxR6XN9tMnFlE-24" value="" style="shape=tableRow;horizontal=0;startSize=0;swimlaneHead=0;swimlaneBody=0;fillColor=none;collapsible=0;dropTarget=0;points=[[0,0.5],[1,0.5]];portConstraint=eastwest;top=0;left=0;right=0;bottom=0;fontFamily=Architects Daughter;fontSource=https%3A%2F%2Ffonts.googleapis.com%2Fcss%3Ffamily%3DArchitects%2BDaughter;" parent="sDfF-1kNxR6XN9tMnFlE-17" vertex="1">
          <mxGeometry y="95" width="217.31395348837222" height="30" as="geometry" />
        </mxCell>
        <mxCell id="sDfF-1kNxR6XN9tMnFlE-25" value="nvarchar(255)" style="shape=partialRectangle;connectable=0;fillColor=none;top=0;left=0;bottom=0;right=0;editable=1;overflow=hidden;whiteSpace=wrap;html=1;fontFamily=Architects Daughter;fontSource=https%3A%2F%2Ffonts.googleapis.com%2Fcss%3Ffamily%3DArchitects%2BDaughter;" parent="sDfF-1kNxR6XN9tMnFlE-24" vertex="1">
          <mxGeometry width="84.85714285714286" height="30" as="geometry">
            <mxRectangle width="84.85714285714286" height="30" as="alternateBounds" />
          </mxGeometry>
        </mxCell>
        <mxCell id="sDfF-1kNxR6XN9tMnFlE-26" value="Description" style="shape=partialRectangle;connectable=0;fillColor=none;top=0;left=0;bottom=0;right=0;align=left;spacingLeft=6;overflow=hidden;whiteSpace=wrap;html=1;fontFamily=Architects Daughter;fontSource=https%3A%2F%2Ffonts.googleapis.com%2Fcss%3Ffamily%3DArchitects%2BDaughter;" parent="sDfF-1kNxR6XN9tMnFlE-24" vertex="1">
          <mxGeometry x="84.85714285714286" width="112.45681063122936" height="30" as="geometry">
            <mxRectangle width="112.45681063122936" height="30" as="alternateBounds" />
          </mxGeometry>
        </mxCell>
        <mxCell id="sDfF-1kNxR6XN9tMnFlE-159" value="" style="shape=singleArrow;whiteSpace=wrap;html=1;arrowWidth=0.5984496124031011;arrowSize=0;fontFamily=Architects Daughter;startSize=30;fontStyle=1;fontSource=https%3A%2F%2Ffonts.googleapis.com%2Fcss%3Ffamily%3DArchitects%2BDaughter;" parent="sDfF-1kNxR6XN9tMnFlE-24" vertex="1">
          <mxGeometry x="197.31395348837222" width="20" height="30" as="geometry">
            <mxRectangle width="20" height="30" as="alternateBounds" />
          </mxGeometry>
        </mxCell>
        <mxCell id="sDfF-1kNxR6XN9tMnFlE-27" value="" style="shape=tableRow;horizontal=0;startSize=0;swimlaneHead=0;swimlaneBody=0;fillColor=none;collapsible=0;dropTarget=0;points=[[0,0.5],[1,0.5]];portConstraint=eastwest;top=0;left=0;right=0;bottom=0;fontFamily=Architects Daughter;fontSource=https%3A%2F%2Ffonts.googleapis.com%2Fcss%3Ffamily%3DArchitects%2BDaughter;" parent="sDfF-1kNxR6XN9tMnFlE-17" vertex="1">
          <mxGeometry y="125" width="217.31395348837222" height="30" as="geometry" />
        </mxCell>
        <mxCell id="sDfF-1kNxR6XN9tMnFlE-28" value="int" style="shape=partialRectangle;connectable=0;fillColor=none;top=0;left=0;bottom=0;right=0;editable=1;overflow=hidden;whiteSpace=wrap;html=1;fontFamily=Architects Daughter;fontSource=https%3A%2F%2Ffonts.googleapis.com%2Fcss%3Ffamily%3DArchitects%2BDaughter;" parent="sDfF-1kNxR6XN9tMnFlE-27" vertex="1">
          <mxGeometry width="84.85714285714286" height="30" as="geometry">
            <mxRectangle width="84.85714285714286" height="30" as="alternateBounds" />
          </mxGeometry>
        </mxCell>
        <mxCell id="sDfF-1kNxR6XN9tMnFlE-29" value="Followers&amp;nbsp;" style="shape=partialRectangle;connectable=0;fillColor=none;top=0;left=0;bottom=0;right=0;align=left;spacingLeft=6;overflow=hidden;whiteSpace=wrap;html=1;fontFamily=Architects Daughter;fontSource=https%3A%2F%2Ffonts.googleapis.com%2Fcss%3Ffamily%3DArchitects%2BDaughter;" parent="sDfF-1kNxR6XN9tMnFlE-27" vertex="1">
          <mxGeometry x="84.85714285714286" width="132.45681063122936" height="30" as="geometry">
            <mxRectangle width="132.45681063122936" height="30" as="alternateBounds" />
          </mxGeometry>
        </mxCell>
        <mxCell id="sDfF-1kNxR6XN9tMnFlE-31" value="&lt;span style=&quot;font-weight: 400; text-wrap-mode: wrap;&quot;&gt;Post&lt;/span&gt;" style="shape=table;startSize=30;container=1;collapsible=1;childLayout=tableLayout;fixedRows=1;rowLines=0;fontStyle=1;align=center;resizeLast=1;html=1;fontFamily=Architects Daughter;fontSource=https%3A%2F%2Ffonts.googleapis.com%2Fcss%3Ffamily%3DArchitects%2BDaughter;" parent="1" vertex="1">
          <mxGeometry x="97" y="691" width="214.2413793103452" height="227.37931034482767" as="geometry">
            <mxRectangle x="137" y="577" width="64" height="30" as="alternateBounds" />
          </mxGeometry>
        </mxCell>
        <mxCell id="sDfF-1kNxR6XN9tMnFlE-32" value="" style="shape=tableRow;horizontal=0;startSize=0;swimlaneHead=0;swimlaneBody=0;fillColor=none;collapsible=0;dropTarget=0;points=[[0,0.5],[1,0.5]];portConstraint=eastwest;top=0;left=0;right=0;bottom=1;fontFamily=Architects Daughter;fontSource=https%3A%2F%2Ffonts.googleapis.com%2Fcss%3Ffamily%3DArchitects%2BDaughter;" parent="sDfF-1kNxR6XN9tMnFlE-31" vertex="1">
          <mxGeometry y="30" width="214.2413793103452" height="30" as="geometry" />
        </mxCell>
        <mxCell id="sDfF-1kNxR6XN9tMnFlE-33" value="PK" style="shape=partialRectangle;connectable=0;fillColor=none;top=0;left=0;bottom=0;right=0;fontStyle=1;overflow=hidden;whiteSpace=wrap;html=1;fontFamily=Architects Daughter;fontSource=https%3A%2F%2Ffonts.googleapis.com%2Fcss%3Ffamily%3DArchitects%2BDaughter;" parent="sDfF-1kNxR6XN9tMnFlE-32" vertex="1">
          <mxGeometry width="87.9999999999998" height="30" as="geometry">
            <mxRectangle width="87.9999999999998" height="30" as="alternateBounds" />
          </mxGeometry>
        </mxCell>
        <mxCell id="sDfF-1kNxR6XN9tMnFlE-34" value="Id" style="shape=partialRectangle;connectable=0;fillColor=none;top=0;left=0;bottom=0;right=0;align=left;spacingLeft=6;fontStyle=5;overflow=hidden;whiteSpace=wrap;html=1;fontFamily=Architects Daughter;fontSource=https%3A%2F%2Ffonts.googleapis.com%2Fcss%3Ffamily%3DArchitects%2BDaughter;" parent="sDfF-1kNxR6XN9tMnFlE-32" vertex="1">
          <mxGeometry x="87.9999999999998" width="126.2413793103454" height="30" as="geometry">
            <mxRectangle width="126.2413793103454" height="30" as="alternateBounds" />
          </mxGeometry>
        </mxCell>
        <mxCell id="sDfF-1kNxR6XN9tMnFlE-35" value="" style="shape=tableRow;horizontal=0;startSize=0;swimlaneHead=0;swimlaneBody=0;fillColor=none;collapsible=0;dropTarget=0;points=[[0,0.5],[1,0.5]];portConstraint=eastwest;top=0;left=0;right=0;bottom=0;fontFamily=Architects Daughter;fontSource=https%3A%2F%2Ffonts.googleapis.com%2Fcss%3Ffamily%3DArchitects%2BDaughter;" parent="sDfF-1kNxR6XN9tMnFlE-31" vertex="1">
          <mxGeometry y="60" width="214.2413793103452" height="29" as="geometry" />
        </mxCell>
        <mxCell id="sDfF-1kNxR6XN9tMnFlE-36" value="nvarchar(Max )" style="shape=partialRectangle;connectable=0;fillColor=none;top=0;left=0;bottom=0;right=0;editable=1;overflow=hidden;whiteSpace=wrap;html=1;fontFamily=Architects Daughter;fontSource=https%3A%2F%2Ffonts.googleapis.com%2Fcss%3Ffamily%3DArchitects%2BDaughter;" parent="sDfF-1kNxR6XN9tMnFlE-35" vertex="1">
          <mxGeometry width="87.9999999999998" height="29" as="geometry">
            <mxRectangle width="87.9999999999998" height="29" as="alternateBounds" />
          </mxGeometry>
        </mxCell>
        <mxCell id="sDfF-1kNxR6XN9tMnFlE-37" value="Content" style="shape=partialRectangle;connectable=0;fillColor=none;top=0;left=0;bottom=0;right=0;align=left;spacingLeft=6;overflow=hidden;whiteSpace=wrap;html=1;fontFamily=Architects Daughter;fontSource=https%3A%2F%2Ffonts.googleapis.com%2Fcss%3Ffamily%3DArchitects%2BDaughter;" parent="sDfF-1kNxR6XN9tMnFlE-35" vertex="1">
          <mxGeometry x="87.9999999999998" width="126.2413793103454" height="29" as="geometry">
            <mxRectangle width="126.2413793103454" height="29" as="alternateBounds" />
          </mxGeometry>
        </mxCell>
        <mxCell id="sDfF-1kNxR6XN9tMnFlE-38" value="" style="shape=tableRow;horizontal=0;startSize=0;swimlaneHead=0;swimlaneBody=0;fillColor=none;collapsible=0;dropTarget=0;points=[[0,0.5],[1,0.5]];portConstraint=eastwest;top=0;left=0;right=0;bottom=0;fontFamily=Architects Daughter;fontSource=https%3A%2F%2Ffonts.googleapis.com%2Fcss%3Ffamily%3DArchitects%2BDaughter;" parent="sDfF-1kNxR6XN9tMnFlE-31" vertex="1">
          <mxGeometry y="89" width="214.2413793103452" height="30" as="geometry" />
        </mxCell>
        <mxCell id="sDfF-1kNxR6XN9tMnFlE-39" value="DateTime" style="shape=partialRectangle;connectable=0;fillColor=none;top=0;left=0;bottom=0;right=0;editable=1;overflow=hidden;whiteSpace=wrap;html=1;fontFamily=Architects Daughter;fontSource=https%3A%2F%2Ffonts.googleapis.com%2Fcss%3Ffamily%3DArchitects%2BDaughter;" parent="sDfF-1kNxR6XN9tMnFlE-38" vertex="1">
          <mxGeometry width="87.9999999999998" height="30" as="geometry">
            <mxRectangle width="87.9999999999998" height="30" as="alternateBounds" />
          </mxGeometry>
        </mxCell>
        <mxCell id="sDfF-1kNxR6XN9tMnFlE-40" value="CreatedAt" style="shape=partialRectangle;connectable=0;fillColor=none;top=0;left=0;bottom=0;right=0;align=left;spacingLeft=6;overflow=hidden;whiteSpace=wrap;html=1;fontFamily=Architects Daughter;fontSource=https%3A%2F%2Ffonts.googleapis.com%2Fcss%3Ffamily%3DArchitects%2BDaughter;" parent="sDfF-1kNxR6XN9tMnFlE-38" vertex="1">
          <mxGeometry x="87.9999999999998" width="126.2413793103454" height="30" as="geometry">
            <mxRectangle width="126.2413793103454" height="30" as="alternateBounds" />
          </mxGeometry>
        </mxCell>
        <mxCell id="sDfF-1kNxR6XN9tMnFlE-41" value="" style="shape=tableRow;horizontal=0;startSize=0;swimlaneHead=0;swimlaneBody=0;fillColor=none;collapsible=0;dropTarget=0;points=[[0,0.5],[1,0.5]];portConstraint=eastwest;top=0;left=0;right=0;bottom=0;fontFamily=Architects Daughter;fontSource=https%3A%2F%2Ffonts.googleapis.com%2Fcss%3Ffamily%3DArchitects%2BDaughter;" parent="sDfF-1kNxR6XN9tMnFlE-31" vertex="1">
          <mxGeometry y="119" width="214.2413793103452" height="24" as="geometry" />
        </mxCell>
        <mxCell id="sDfF-1kNxR6XN9tMnFlE-42" value="Fk" style="shape=partialRectangle;connectable=0;fillColor=none;top=0;left=0;bottom=0;right=0;editable=1;overflow=hidden;whiteSpace=wrap;html=1;fontFamily=Architects Daughter;fontSource=https%3A%2F%2Ffonts.googleapis.com%2Fcss%3Ffamily%3DArchitects%2BDaughter;" parent="sDfF-1kNxR6XN9tMnFlE-41" vertex="1">
          <mxGeometry width="87.9999999999998" height="24" as="geometry">
            <mxRectangle width="87.9999999999998" height="24" as="alternateBounds" />
          </mxGeometry>
        </mxCell>
        <mxCell id="sDfF-1kNxR6XN9tMnFlE-43" value="UserId" style="shape=partialRectangle;connectable=0;fillColor=none;top=0;left=0;bottom=0;right=0;align=left;spacingLeft=6;overflow=hidden;whiteSpace=wrap;html=1;fontFamily=Architects Daughter;fontSource=https%3A%2F%2Ffonts.googleapis.com%2Fcss%3Ffamily%3DArchitects%2BDaughter;" parent="sDfF-1kNxR6XN9tMnFlE-41" vertex="1">
          <mxGeometry x="87.9999999999998" width="126.2413793103454" height="24" as="geometry">
            <mxRectangle width="126.2413793103454" height="24" as="alternateBounds" />
          </mxGeometry>
        </mxCell>
        <mxCell id="sDfF-1kNxR6XN9tMnFlE-154" value="" style="shape=tableRow;horizontal=0;startSize=0;swimlaneHead=0;swimlaneBody=0;fillColor=none;collapsible=0;dropTarget=0;points=[[0,0.5],[1,0.5]];portConstraint=eastwest;top=0;left=0;right=0;bottom=0;fontFamily=Architects Daughter;fontSource=https%3A%2F%2Ffonts.googleapis.com%2Fcss%3Ffamily%3DArchitects%2BDaughter;" parent="sDfF-1kNxR6XN9tMnFlE-31" vertex="1">
          <mxGeometry y="143" width="214.2413793103452" height="24" as="geometry" />
        </mxCell>
        <mxCell id="sDfF-1kNxR6XN9tMnFlE-155" value="Fk" style="shape=partialRectangle;connectable=0;fillColor=none;top=0;left=0;bottom=0;right=0;editable=1;overflow=hidden;whiteSpace=wrap;html=1;fontFamily=Architects Daughter;fontSource=https%3A%2F%2Ffonts.googleapis.com%2Fcss%3Ffamily%3DArchitects%2BDaughter;" parent="sDfF-1kNxR6XN9tMnFlE-154" vertex="1">
          <mxGeometry width="87.9999999999998" height="24" as="geometry">
            <mxRectangle width="87.9999999999998" height="24" as="alternateBounds" />
          </mxGeometry>
        </mxCell>
        <mxCell id="sDfF-1kNxR6XN9tMnFlE-156" value="&lt;span style=&quot;text-align: center;&quot;&gt;Community&lt;/span&gt;Id" style="shape=partialRectangle;connectable=0;fillColor=none;top=0;left=0;bottom=0;right=0;align=left;spacingLeft=6;overflow=hidden;whiteSpace=wrap;html=1;fontFamily=Architects Daughter;fontSource=https%3A%2F%2Ffonts.googleapis.com%2Fcss%3Ffamily%3DArchitects%2BDaughter;" parent="sDfF-1kNxR6XN9tMnFlE-154" vertex="1">
          <mxGeometry x="87.9999999999998" width="126.2413793103454" height="24" as="geometry">
            <mxRectangle width="126.2413793103454" height="24" as="alternateBounds" />
          </mxGeometry>
        </mxCell>
        <mxCell id="sDfF-1kNxR6XN9tMnFlE-212" value="" style="shape=tableRow;horizontal=0;startSize=0;swimlaneHead=0;swimlaneBody=0;fillColor=none;collapsible=0;dropTarget=0;points=[[0,0.5],[1,0.5]];portConstraint=eastwest;top=0;left=0;right=0;bottom=0;fontFamily=Architects Daughter;fontSource=https%3A%2F%2Ffonts.googleapis.com%2Fcss%3Ffamily%3DArchitects%2BDaughter;" parent="sDfF-1kNxR6XN9tMnFlE-31" vertex="1">
          <mxGeometry y="167" width="214.2413793103452" height="30" as="geometry" />
        </mxCell>
        <mxCell id="sDfF-1kNxR6XN9tMnFlE-213" value="nvarchar(30)" style="shape=partialRectangle;connectable=0;fillColor=none;top=0;left=0;bottom=0;right=0;editable=1;overflow=hidden;whiteSpace=wrap;html=1;fontFamily=Architects Daughter;fontSource=https%3A%2F%2Ffonts.googleapis.com%2Fcss%3Ffamily%3DArchitects%2BDaughter;" parent="sDfF-1kNxR6XN9tMnFlE-212" vertex="1">
          <mxGeometry width="87.9999999999998" height="30" as="geometry">
            <mxRectangle width="87.9999999999998" height="30" as="alternateBounds" />
          </mxGeometry>
        </mxCell>
        <mxCell id="sDfF-1kNxR6XN9tMnFlE-214" value="Title" style="shape=partialRectangle;connectable=0;fillColor=none;top=0;left=0;bottom=0;right=0;align=left;spacingLeft=6;overflow=hidden;whiteSpace=wrap;html=1;fontFamily=Architects Daughter;fontSource=https%3A%2F%2Ffonts.googleapis.com%2Fcss%3Ffamily%3DArchitects%2BDaughter;" parent="sDfF-1kNxR6XN9tMnFlE-212" vertex="1">
          <mxGeometry x="87.9999999999998" width="126.2413793103454" height="30" as="geometry">
            <mxRectangle width="126.2413793103454" height="30" as="alternateBounds" />
          </mxGeometry>
        </mxCell>
        <mxCell id="sDfF-1kNxR6XN9tMnFlE-110" value="&lt;span style=&quot;font-weight: 400; text-wrap-mode: wrap;&quot;&gt;Comment&lt;/span&gt;" style="shape=table;startSize=30;container=1;collapsible=1;childLayout=tableLayout;fixedRows=1;rowLines=0;fontStyle=1;align=center;resizeLast=1;html=1;fontFamily=Architects Daughter;fontSource=https%3A%2F%2Ffonts.googleapis.com%2Fcss%3Ffamily%3DArchitects%2BDaughter;" parent="1" vertex="1">
          <mxGeometry x="-452" y="709.31" width="180" height="210" as="geometry">
            <mxRectangle x="137" y="577" width="64" height="30" as="alternateBounds" />
          </mxGeometry>
        </mxCell>
        <mxCell id="sDfF-1kNxR6XN9tMnFlE-111" value="" style="shape=tableRow;horizontal=0;startSize=0;swimlaneHead=0;swimlaneBody=0;fillColor=none;collapsible=0;dropTarget=0;points=[[0,0.5],[1,0.5]];portConstraint=eastwest;top=0;left=0;right=0;bottom=1;fontFamily=Architects Daughter;fontSource=https%3A%2F%2Ffonts.googleapis.com%2Fcss%3Ffamily%3DArchitects%2BDaughter;" parent="sDfF-1kNxR6XN9tMnFlE-110" vertex="1">
          <mxGeometry y="30" width="180" height="30" as="geometry" />
        </mxCell>
        <mxCell id="sDfF-1kNxR6XN9tMnFlE-112" value="PK" style="shape=partialRectangle;connectable=0;fillColor=none;top=0;left=0;bottom=0;right=0;fontStyle=1;overflow=hidden;whiteSpace=wrap;html=1;fontFamily=Architects Daughter;fontSource=https%3A%2F%2Ffonts.googleapis.com%2Fcss%3Ffamily%3DArchitects%2BDaughter;" parent="sDfF-1kNxR6XN9tMnFlE-111" vertex="1">
          <mxGeometry width="86.28999999999971" height="30" as="geometry">
            <mxRectangle width="86.28999999999971" height="30" as="alternateBounds" />
          </mxGeometry>
        </mxCell>
        <mxCell id="sDfF-1kNxR6XN9tMnFlE-113" value="Id" style="shape=partialRectangle;connectable=0;fillColor=none;top=0;left=0;bottom=0;right=0;align=left;spacingLeft=6;fontStyle=5;overflow=hidden;whiteSpace=wrap;html=1;fontFamily=Architects Daughter;fontSource=https%3A%2F%2Ffonts.googleapis.com%2Fcss%3Ffamily%3DArchitects%2BDaughter;" parent="sDfF-1kNxR6XN9tMnFlE-111" vertex="1">
          <mxGeometry x="86.28999999999971" width="93.71000000000029" height="30" as="geometry">
            <mxRectangle width="93.71000000000029" height="30" as="alternateBounds" />
          </mxGeometry>
        </mxCell>
        <mxCell id="sDfF-1kNxR6XN9tMnFlE-114" value="" style="shape=tableRow;horizontal=0;startSize=0;swimlaneHead=0;swimlaneBody=0;fillColor=none;collapsible=0;dropTarget=0;points=[[0,0.5],[1,0.5]];portConstraint=eastwest;top=0;left=0;right=0;bottom=0;fontFamily=Architects Daughter;fontSource=https%3A%2F%2Ffonts.googleapis.com%2Fcss%3Ffamily%3DArchitects%2BDaughter;" parent="sDfF-1kNxR6XN9tMnFlE-110" vertex="1">
          <mxGeometry y="60" width="180" height="30" as="geometry" />
        </mxCell>
        <mxCell id="sDfF-1kNxR6XN9tMnFlE-115" value="nvarchar(Max)" style="shape=partialRectangle;connectable=0;fillColor=none;top=0;left=0;bottom=0;right=0;editable=1;overflow=hidden;whiteSpace=wrap;html=1;fontFamily=Architects Daughter;fontSource=https%3A%2F%2Ffonts.googleapis.com%2Fcss%3Ffamily%3DArchitects%2BDaughter;" parent="sDfF-1kNxR6XN9tMnFlE-114" vertex="1">
          <mxGeometry width="86.28999999999971" height="30" as="geometry">
            <mxRectangle width="86.28999999999971" height="30" as="alternateBounds" />
          </mxGeometry>
        </mxCell>
        <mxCell id="sDfF-1kNxR6XN9tMnFlE-116" value="Content" style="shape=partialRectangle;connectable=0;fillColor=none;top=0;left=0;bottom=0;right=0;align=left;spacingLeft=6;overflow=hidden;whiteSpace=wrap;html=1;fontFamily=Architects Daughter;fontSource=https%3A%2F%2Ffonts.googleapis.com%2Fcss%3Ffamily%3DArchitects%2BDaughter;" parent="sDfF-1kNxR6XN9tMnFlE-114" vertex="1">
          <mxGeometry x="86.28999999999971" width="93.71000000000029" height="30" as="geometry">
            <mxRectangle width="93.71000000000029" height="30" as="alternateBounds" />
          </mxGeometry>
        </mxCell>
        <mxCell id="sDfF-1kNxR6XN9tMnFlE-117" value="" style="shape=tableRow;horizontal=0;startSize=0;swimlaneHead=0;swimlaneBody=0;fillColor=none;collapsible=0;dropTarget=0;points=[[0,0.5],[1,0.5]];portConstraint=eastwest;top=0;left=0;right=0;bottom=0;fontFamily=Architects Daughter;fontSource=https%3A%2F%2Ffonts.googleapis.com%2Fcss%3Ffamily%3DArchitects%2BDaughter;" parent="sDfF-1kNxR6XN9tMnFlE-110" vertex="1">
          <mxGeometry y="90" width="180" height="30" as="geometry" />
        </mxCell>
        <mxCell id="sDfF-1kNxR6XN9tMnFlE-118" value="DateTime" style="shape=partialRectangle;connectable=0;fillColor=none;top=0;left=0;bottom=0;right=0;editable=1;overflow=hidden;whiteSpace=wrap;html=1;fontFamily=Architects Daughter;fontSource=https%3A%2F%2Ffonts.googleapis.com%2Fcss%3Ffamily%3DArchitects%2BDaughter;" parent="sDfF-1kNxR6XN9tMnFlE-117" vertex="1">
          <mxGeometry width="86.28999999999971" height="30" as="geometry">
            <mxRectangle width="86.28999999999971" height="30" as="alternateBounds" />
          </mxGeometry>
        </mxCell>
        <mxCell id="sDfF-1kNxR6XN9tMnFlE-119" value="CreateAt" style="shape=partialRectangle;connectable=0;fillColor=none;top=0;left=0;bottom=0;right=0;align=left;spacingLeft=6;overflow=hidden;whiteSpace=wrap;html=1;fontFamily=Architects Daughter;fontSource=https%3A%2F%2Ffonts.googleapis.com%2Fcss%3Ffamily%3DArchitects%2BDaughter;" parent="sDfF-1kNxR6XN9tMnFlE-117" vertex="1">
          <mxGeometry x="86.28999999999971" width="93.71000000000029" height="30" as="geometry">
            <mxRectangle width="93.71000000000029" height="30" as="alternateBounds" />
          </mxGeometry>
        </mxCell>
        <mxCell id="sDfF-1kNxR6XN9tMnFlE-120" value="" style="shape=tableRow;horizontal=0;startSize=0;swimlaneHead=0;swimlaneBody=0;fillColor=none;collapsible=0;dropTarget=0;points=[[0,0.5],[1,0.5]];portConstraint=eastwest;top=0;left=0;right=0;bottom=0;fontFamily=Architects Daughter;fontSource=https%3A%2F%2Ffonts.googleapis.com%2Fcss%3Ffamily%3DArchitects%2BDaughter;" parent="sDfF-1kNxR6XN9tMnFlE-110" vertex="1">
          <mxGeometry y="120" width="180" height="30" as="geometry" />
        </mxCell>
        <mxCell id="sDfF-1kNxR6XN9tMnFlE-121" value="Fk" style="shape=partialRectangle;connectable=0;fillColor=none;top=0;left=0;bottom=0;right=0;editable=1;overflow=hidden;whiteSpace=wrap;html=1;fontFamily=Architects Daughter;fontSource=https%3A%2F%2Ffonts.googleapis.com%2Fcss%3Ffamily%3DArchitects%2BDaughter;" parent="sDfF-1kNxR6XN9tMnFlE-120" vertex="1">
          <mxGeometry width="86.28999999999971" height="30" as="geometry">
            <mxRectangle width="86.28999999999971" height="30" as="alternateBounds" />
          </mxGeometry>
        </mxCell>
        <mxCell id="sDfF-1kNxR6XN9tMnFlE-122" value="UserId" style="shape=partialRectangle;connectable=0;fillColor=none;top=0;left=0;bottom=0;right=0;align=left;spacingLeft=6;overflow=hidden;whiteSpace=wrap;html=1;fontFamily=Architects Daughter;fontSource=https%3A%2F%2Ffonts.googleapis.com%2Fcss%3Ffamily%3DArchitects%2BDaughter;" parent="sDfF-1kNxR6XN9tMnFlE-120" vertex="1">
          <mxGeometry x="86.28999999999971" width="93.71000000000029" height="30" as="geometry">
            <mxRectangle width="93.71000000000029" height="30" as="alternateBounds" />
          </mxGeometry>
        </mxCell>
        <mxCell id="sDfF-1kNxR6XN9tMnFlE-171" value="" style="shape=tableRow;horizontal=0;startSize=0;swimlaneHead=0;swimlaneBody=0;fillColor=none;collapsible=0;dropTarget=0;points=[[0,0.5],[1,0.5]];portConstraint=eastwest;top=0;left=0;right=0;bottom=0;fontFamily=Architects Daughter;fontSource=https%3A%2F%2Ffonts.googleapis.com%2Fcss%3Ffamily%3DArchitects%2BDaughter;" parent="sDfF-1kNxR6XN9tMnFlE-110" vertex="1">
          <mxGeometry y="150" width="180" height="30" as="geometry" />
        </mxCell>
        <mxCell id="sDfF-1kNxR6XN9tMnFlE-172" value="Fk" style="shape=partialRectangle;connectable=0;fillColor=none;top=0;left=0;bottom=0;right=0;editable=1;overflow=hidden;whiteSpace=wrap;html=1;fontFamily=Architects Daughter;fontSource=https%3A%2F%2Ffonts.googleapis.com%2Fcss%3Ffamily%3DArchitects%2BDaughter;" parent="sDfF-1kNxR6XN9tMnFlE-171" vertex="1">
          <mxGeometry width="86.28999999999971" height="30" as="geometry">
            <mxRectangle width="86.28999999999971" height="30" as="alternateBounds" />
          </mxGeometry>
        </mxCell>
        <mxCell id="sDfF-1kNxR6XN9tMnFlE-173" value="ReplyId" style="shape=partialRectangle;connectable=0;fillColor=none;top=0;left=0;bottom=0;right=0;align=left;spacingLeft=6;overflow=hidden;whiteSpace=wrap;html=1;fontFamily=Architects Daughter;fontSource=https%3A%2F%2Ffonts.googleapis.com%2Fcss%3Ffamily%3DArchitects%2BDaughter;" parent="sDfF-1kNxR6XN9tMnFlE-171" vertex="1">
          <mxGeometry x="86.28999999999971" width="93.71000000000029" height="30" as="geometry">
            <mxRectangle width="93.71000000000029" height="30" as="alternateBounds" />
          </mxGeometry>
        </mxCell>
        <mxCell id="sDfF-1kNxR6XN9tMnFlE-215" value="" style="shape=tableRow;horizontal=0;startSize=0;swimlaneHead=0;swimlaneBody=0;fillColor=none;collapsible=0;dropTarget=0;points=[[0,0.5],[1,0.5]];portConstraint=eastwest;top=0;left=0;right=0;bottom=0;fontFamily=Architects Daughter;fontSource=https%3A%2F%2Ffonts.googleapis.com%2Fcss%3Ffamily%3DArchitects%2BDaughter;" parent="sDfF-1kNxR6XN9tMnFlE-110" vertex="1">
          <mxGeometry y="180" width="180" height="30" as="geometry" />
        </mxCell>
        <mxCell id="sDfF-1kNxR6XN9tMnFlE-216" value="Fk" style="shape=partialRectangle;connectable=0;fillColor=none;top=0;left=0;bottom=0;right=0;editable=1;overflow=hidden;whiteSpace=wrap;html=1;fontFamily=Architects Daughter;fontSource=https%3A%2F%2Ffonts.googleapis.com%2Fcss%3Ffamily%3DArchitects%2BDaughter;" parent="sDfF-1kNxR6XN9tMnFlE-215" vertex="1">
          <mxGeometry width="86.28999999999971" height="30" as="geometry">
            <mxRectangle width="86.28999999999971" height="30" as="alternateBounds" />
          </mxGeometry>
        </mxCell>
        <mxCell id="sDfF-1kNxR6XN9tMnFlE-217" value="PostId" style="shape=partialRectangle;connectable=0;fillColor=none;top=0;left=0;bottom=0;right=0;align=left;spacingLeft=6;overflow=hidden;whiteSpace=wrap;html=1;fontFamily=Architects Daughter;fontSource=https%3A%2F%2Ffonts.googleapis.com%2Fcss%3Ffamily%3DArchitects%2BDaughter;" parent="sDfF-1kNxR6XN9tMnFlE-215" vertex="1">
          <mxGeometry x="86.28999999999971" width="93.71000000000029" height="30" as="geometry">
            <mxRectangle width="93.71000000000029" height="30" as="alternateBounds" />
          </mxGeometry>
        </mxCell>
        <mxCell id="sDfF-1kNxR6XN9tMnFlE-123" value="Membership&amp;nbsp;" style="rhombus;whiteSpace=wrap;html=1;fontFamily=Architects Daughter;startSize=30;fontStyle=1;fontSource=https%3A%2F%2Ffonts.googleapis.com%2Fcss%3Ffamily%3DArchitects%2BDaughter;" parent="1" vertex="1">
          <mxGeometry x="-155" y="311.5" width="106" height="80" as="geometry" />
        </mxCell>
        <mxCell id="sDfF-1kNxR6XN9tMnFlE-133" value="" style="endArrow=none;html=1;rounded=0;fontFamily=Architects Daughter;fontSource=https%3A%2F%2Ffonts.googleapis.com%2Fcss%3Ffamily%3DArchitects%2BDaughter;fontSize=16;startSize=14;endSize=14;sourcePerimeterSpacing=8;targetPerimeterSpacing=8;curved=1;exitX=1;exitY=0.5;exitDx=0;exitDy=0;entryX=0;entryY=0.5;entryDx=0;entryDy=0;" parent="1" source="sDfF-1kNxR6XN9tMnFlE-123" target="sDfF-1kNxR6XN9tMnFlE-18" edge="1">
          <mxGeometry relative="1" as="geometry">
            <mxPoint x="-102" y="412" as="sourcePoint" />
            <mxPoint x="58" y="412" as="targetPoint" />
          </mxGeometry>
        </mxCell>
        <mxCell id="sDfF-1kNxR6XN9tMnFlE-134" value="N" style="resizable=0;html=1;whiteSpace=wrap;align=right;verticalAlign=bottom;fontFamily=Architects Daughter;fontSource=https%3A%2F%2Ffonts.googleapis.com%2Fcss%3Ffamily%3DArchitects%2BDaughter;" parent="sDfF-1kNxR6XN9tMnFlE-133" connectable="0" vertex="1">
          <mxGeometry x="1" relative="1" as="geometry">
            <mxPoint x="-8" y="3" as="offset" />
          </mxGeometry>
        </mxCell>
        <mxCell id="sDfF-1kNxR6XN9tMnFlE-135" value="" style="endArrow=none;html=1;rounded=0;fontFamily=Architects Daughter;fontSource=https%3A%2F%2Ffonts.googleapis.com%2Fcss%3Ffamily%3DArchitects%2BDaughter;fontSize=16;startSize=14;endSize=14;sourcePerimeterSpacing=8;targetPerimeterSpacing=8;exitX=0;exitY=0.5;exitDx=0;exitDy=0;entryX=0.992;entryY=0.701;entryDx=0;entryDy=0;entryPerimeter=0;" parent="1" source="sDfF-1kNxR6XN9tMnFlE-123" target="sDfF-1kNxR6XN9tMnFlE-5" edge="1">
          <mxGeometry relative="1" as="geometry">
            <mxPoint x="-173" y="266" as="sourcePoint" />
            <mxPoint x="-258" y="372" as="targetPoint" />
          </mxGeometry>
        </mxCell>
        <mxCell id="sDfF-1kNxR6XN9tMnFlE-136" value="&amp;nbsp; M" style="resizable=0;html=1;whiteSpace=wrap;align=right;verticalAlign=bottom;fontFamily=Architects Daughter;fontSource=https%3A%2F%2Ffonts.googleapis.com%2Fcss%3Ffamily%3DArchitects%2BDaughter;" parent="sDfF-1kNxR6XN9tMnFlE-135" connectable="0" vertex="1">
          <mxGeometry x="1" relative="1" as="geometry">
            <mxPoint x="17" y="1" as="offset" />
          </mxGeometry>
        </mxCell>
        <mxCell id="sDfF-1kNxR6XN9tMnFlE-157" value="have Post" style="rhombus;whiteSpace=wrap;html=1;fontFamily=Architects Daughter;startSize=30;fontStyle=1;fontSource=https%3A%2F%2Ffonts.googleapis.com%2Fcss%3Ffamily%3DArchitects%2BDaughter;direction=south;" parent="1" vertex="1">
          <mxGeometry x="147" y="564.0048275862068" width="80" height="80" as="geometry" />
        </mxCell>
        <mxCell id="sDfF-1kNxR6XN9tMnFlE-164" value="" style="endArrow=none;html=1;rounded=0;fontFamily=Architects Daughter;fontSource=https%3A%2F%2Ffonts.googleapis.com%2Fcss%3Ffamily%3DArchitects%2BDaughter;fontSize=16;startSize=14;endSize=14;sourcePerimeterSpacing=8;targetPerimeterSpacing=8;curved=1;entryX=1;entryY=0.5;entryDx=0;entryDy=0;exitX=0.5;exitY=0;exitDx=0;exitDy=0;" parent="1" source="sDfF-1kNxR6XN9tMnFlE-31" target="sDfF-1kNxR6XN9tMnFlE-157" edge="1">
          <mxGeometry relative="1" as="geometry">
            <mxPoint x="-179" y="656" as="sourcePoint" />
            <mxPoint x="-19" y="656" as="targetPoint" />
          </mxGeometry>
        </mxCell>
        <mxCell id="sDfF-1kNxR6XN9tMnFlE-185" value="M" style="edgeLabel;html=1;align=center;verticalAlign=middle;resizable=0;points=[];fontSize=16;fontFamily=Architects Daughter;fontSource=https%3A%2F%2Ffonts.googleapis.com%2Fcss%3Ffamily%3DArchitects%2BDaughter;" parent="sDfF-1kNxR6XN9tMnFlE-164" vertex="1" connectable="0">
          <mxGeometry x="-0.0658" y="-3" relative="1" as="geometry">
            <mxPoint as="offset" />
          </mxGeometry>
        </mxCell>
        <mxCell id="sDfF-1kNxR6XN9tMnFlE-165" value="Have&lt;div&gt;Commnets&lt;/div&gt;" style="rhombus;whiteSpace=wrap;html=1;fontFamily=Architects Daughter;startSize=30;fontStyle=1;fontSource=https%3A%2F%2Ffonts.googleapis.com%2Fcss%3Ffamily%3DArchitects%2BDaughter;direction=south;" parent="1" vertex="1">
          <mxGeometry x="-134" y="727" width="92" height="88.16" as="geometry" />
        </mxCell>
        <mxCell id="sDfF-1kNxR6XN9tMnFlE-166" value="" style="endArrow=none;html=1;rounded=0;fontFamily=Architects Daughter;fontSource=https%3A%2F%2Ffonts.googleapis.com%2Fcss%3Ffamily%3DArchitects%2BDaughter;fontSize=16;startSize=14;endSize=14;sourcePerimeterSpacing=8;targetPerimeterSpacing=8;curved=1;entryX=1;entryY=0.5;entryDx=0;entryDy=0;exitX=0.5;exitY=1;exitDx=0;exitDy=0;" parent="1" source="sDfF-1kNxR6XN9tMnFlE-165" target="sDfF-1kNxR6XN9tMnFlE-114" edge="1">
          <mxGeometry relative="1" as="geometry">
            <mxPoint x="-200" y="786" as="sourcePoint" />
            <mxPoint x="-200" y="739" as="targetPoint" />
          </mxGeometry>
        </mxCell>
        <mxCell id="sDfF-1kNxR6XN9tMnFlE-200" value="M" style="edgeLabel;html=1;align=center;verticalAlign=middle;resizable=0;points=[];fontSize=16;fontFamily=Architects Daughter;fontSource=https%3A%2F%2Ffonts.googleapis.com%2Fcss%3Ffamily%3DArchitects%2BDaughter;" parent="sDfF-1kNxR6XN9tMnFlE-166" vertex="1" connectable="0">
          <mxGeometry x="0.6665" relative="1" as="geometry">
            <mxPoint as="offset" />
          </mxGeometry>
        </mxCell>
        <mxCell id="sDfF-1kNxR6XN9tMnFlE-167" value="" style="endArrow=none;html=1;rounded=0;fontFamily=Architects Daughter;fontSource=https%3A%2F%2Ffonts.googleapis.com%2Fcss%3Ffamily%3DArchitects%2BDaughter;fontSize=16;startSize=14;endSize=14;sourcePerimeterSpacing=8;targetPerimeterSpacing=8;curved=1;entryX=-0.016;entryY=0.791;entryDx=0;entryDy=0;exitX=0.5;exitY=0;exitDx=0;exitDy=0;entryPerimeter=0;" parent="1" source="sDfF-1kNxR6XN9tMnFlE-165" target="sDfF-1kNxR6XN9tMnFlE-35" edge="1">
          <mxGeometry relative="1" as="geometry">
            <mxPoint x="-54" y="717" as="sourcePoint" />
            <mxPoint x="-54" y="670" as="targetPoint" />
          </mxGeometry>
        </mxCell>
        <mxCell id="sDfF-1kNxR6XN9tMnFlE-168" value="Reply" style="rhombus;whiteSpace=wrap;html=1;fontFamily=Architects Daughter;startSize=30;fontStyle=1;fontSource=https%3A%2F%2Ffonts.googleapis.com%2Fcss%3Ffamily%3DArchitects%2BDaughter;direction=south;" parent="1" vertex="1">
          <mxGeometry x="-633" y="776" width="80" height="80" as="geometry" />
        </mxCell>
        <mxCell id="sDfF-1kNxR6XN9tMnFlE-169" value="" style="endArrow=none;html=1;rounded=0;fontFamily=Architects Daughter;fontSource=https%3A%2F%2Ffonts.googleapis.com%2Fcss%3Ffamily%3DArchitects%2BDaughter;fontSize=16;startSize=14;endSize=14;sourcePerimeterSpacing=8;targetPerimeterSpacing=8;curved=1;entryX=0;entryY=0.5;entryDx=0;entryDy=0;exitX=0.004;exitY=0.068;exitDx=0;exitDy=0;exitPerimeter=0;" parent="1" source="sDfF-1kNxR6XN9tMnFlE-110" target="sDfF-1kNxR6XN9tMnFlE-168" edge="1">
          <mxGeometry relative="1" as="geometry">
            <mxPoint x="-511" y="682" as="sourcePoint" />
            <mxPoint x="-649" y="691" as="targetPoint" />
          </mxGeometry>
        </mxCell>
        <mxCell id="sDfF-1kNxR6XN9tMnFlE-202" value="M" style="edgeLabel;html=1;align=center;verticalAlign=middle;resizable=0;points=[];fontSize=16;fontFamily=Architects Daughter;fontSource=https%3A%2F%2Ffonts.googleapis.com%2Fcss%3Ffamily%3DArchitects%2BDaughter;" parent="sDfF-1kNxR6XN9tMnFlE-169" vertex="1" connectable="0">
          <mxGeometry x="-0.6466" y="-1" relative="1" as="geometry">
            <mxPoint as="offset" />
          </mxGeometry>
        </mxCell>
        <mxCell id="sDfF-1kNxR6XN9tMnFlE-170" value="" style="endArrow=none;html=1;rounded=0;fontFamily=Architects Daughter;fontSource=https%3A%2F%2Ffonts.googleapis.com%2Fcss%3Ffamily%3DArchitects%2BDaughter;fontSize=16;startSize=14;endSize=14;sourcePerimeterSpacing=8;targetPerimeterSpacing=8;curved=1;exitX=0;exitY=0.5;exitDx=0;exitDy=0;entryX=0.5;entryY=0;entryDx=0;entryDy=0;" parent="1" source="sDfF-1kNxR6XN9tMnFlE-117" target="sDfF-1kNxR6XN9tMnFlE-168" edge="1">
          <mxGeometry relative="1" as="geometry">
            <mxPoint x="-479" y="720" as="sourcePoint" />
            <mxPoint x="-551" y="804" as="targetPoint" />
          </mxGeometry>
        </mxCell>
        <mxCell id="sDfF-1kNxR6XN9tMnFlE-174" value="Create&lt;div&gt;&amp;nbsp;Post&lt;/div&gt;" style="rhombus;whiteSpace=wrap;html=1;fontFamily=Architects Daughter;startSize=30;fontStyle=1;fontSource=https%3A%2F%2Ffonts.googleapis.com%2Fcss%3Ffamily%3DArchitects%2BDaughter;direction=south;" parent="1" vertex="1">
          <mxGeometry x="-147" y="532" width="80" height="80" as="geometry" />
        </mxCell>
        <mxCell id="sDfF-1kNxR6XN9tMnFlE-176" value="" style="endArrow=none;html=1;rounded=0;fontFamily=Architects Daughter;fontSource=https%3A%2F%2Ffonts.googleapis.com%2Fcss%3Ffamily%3DArchitects%2BDaughter;fontSize=16;startSize=14;endSize=14;sourcePerimeterSpacing=8;targetPerimeterSpacing=8;curved=1;entryX=1;entryY=1;entryDx=0;entryDy=0;exitX=0.116;exitY=0.627;exitDx=0;exitDy=0;exitPerimeter=0;" parent="1" source="sDfF-1kNxR6XN9tMnFlE-174" target="sDfF-1kNxR6XN9tMnFlE-4" edge="1">
          <mxGeometry relative="1" as="geometry">
            <mxPoint x="-169" y="559" as="sourcePoint" />
            <mxPoint x="-169" y="512" as="targetPoint" />
          </mxGeometry>
        </mxCell>
        <mxCell id="sDfF-1kNxR6XN9tMnFlE-177" value="" style="endArrow=none;html=1;rounded=0;fontFamily=Architects Daughter;fontSource=https%3A%2F%2Ffonts.googleapis.com%2Fcss%3Ffamily%3DArchitects%2BDaughter;fontSize=16;startSize=14;endSize=14;sourcePerimeterSpacing=8;targetPerimeterSpacing=8;curved=1;entryX=0.953;entryY=0.446;entryDx=0;entryDy=0;exitX=0;exitY=0;exitDx=0;exitDy=0;entryPerimeter=0;" parent="1" source="sDfF-1kNxR6XN9tMnFlE-31" target="sDfF-1kNxR6XN9tMnFlE-174" edge="1">
          <mxGeometry relative="1" as="geometry">
            <mxPoint x="75" y="677" as="sourcePoint" />
            <mxPoint x="75" y="630" as="targetPoint" />
          </mxGeometry>
        </mxCell>
        <mxCell id="sDfF-1kNxR6XN9tMnFlE-193" value="M" style="edgeLabel;html=1;align=center;verticalAlign=middle;resizable=0;points=[];fontSize=16;fontFamily=Architects Daughter;fontSource=https%3A%2F%2Ffonts.googleapis.com%2Fcss%3Ffamily%3DArchitects%2BDaughter;" parent="sDfF-1kNxR6XN9tMnFlE-177" vertex="1" connectable="0">
          <mxGeometry x="-0.657" y="-3" relative="1" as="geometry">
            <mxPoint as="offset" />
          </mxGeometry>
        </mxCell>
        <mxCell id="sDfF-1kNxR6XN9tMnFlE-178" value="" style="endArrow=none;html=1;rounded=0;fontFamily=Architects Daughter;fontSource=https%3A%2F%2Ffonts.googleapis.com%2Fcss%3Ffamily%3DArchitects%2BDaughter;fontSize=16;startSize=14;endSize=14;sourcePerimeterSpacing=8;targetPerimeterSpacing=8;curved=1;entryX=1;entryY=0.5;entryDx=0;entryDy=0;exitX=0.5;exitY=0;exitDx=0;exitDy=0;" parent="1" source="sDfF-1kNxR6XN9tMnFlE-110" target="sDfF-1kNxR6XN9tMnFlE-180" edge="1">
          <mxGeometry relative="1" as="geometry">
            <mxPoint x="-338" y="665" as="sourcePoint" />
            <mxPoint x="-338" y="618" as="targetPoint" />
          </mxGeometry>
        </mxCell>
        <mxCell id="sDfF-1kNxR6XN9tMnFlE-196" value="M" style="edgeLabel;html=1;align=center;verticalAlign=middle;resizable=0;points=[];fontSize=16;fontFamily=Architects Daughter;fontSource=https%3A%2F%2Ffonts.googleapis.com%2Fcss%3Ffamily%3DArchitects%2BDaughter;" parent="sDfF-1kNxR6XN9tMnFlE-178" vertex="1" connectable="0">
          <mxGeometry x="-0.4057" y="-1" relative="1" as="geometry">
            <mxPoint as="offset" />
          </mxGeometry>
        </mxCell>
        <mxCell id="sDfF-1kNxR6XN9tMnFlE-179" value="" style="endArrow=none;html=1;rounded=0;fontFamily=Architects Daughter;fontSource=https%3A%2F%2Ffonts.googleapis.com%2Fcss%3Ffamily%3DArchitects%2BDaughter;fontSize=16;startSize=14;endSize=14;sourcePerimeterSpacing=8;targetPerimeterSpacing=8;curved=1;entryX=0.467;entryY=1.172;entryDx=0;entryDy=0;exitX=0;exitY=0.5;exitDx=0;exitDy=0;entryPerimeter=0;" parent="1" source="sDfF-1kNxR6XN9tMnFlE-180" target="sDfF-1kNxR6XN9tMnFlE-14" edge="1">
          <mxGeometry relative="1" as="geometry">
            <mxPoint x="-420" y="606" as="sourcePoint" />
            <mxPoint x="-420" y="559" as="targetPoint" />
          </mxGeometry>
        </mxCell>
        <mxCell id="sDfF-1kNxR6XN9tMnFlE-180" value="Create&amp;nbsp;&lt;div&gt;&lt;code&gt;Commnet&lt;/code&gt;&lt;span class=&quot;citation-63 citation-end-63&quot;&gt; &lt;sup data-turn-source-index=&quot;10&quot; class=&quot;superscript&quot;&gt;&lt;/sup&gt;&lt;/span&gt;&lt;/div&gt;" style="rhombus;whiteSpace=wrap;html=1;fontFamily=Architects Daughter;startSize=30;fontStyle=1;fontSource=https%3A%2F%2Ffonts.googleapis.com%2Fcss%3Ffamily%3DArchitects%2BDaughter;direction=south;" parent="1" vertex="1">
          <mxGeometry x="-415" y="552" width="80" height="80" as="geometry" />
        </mxCell>
        <mxCell id="sDfF-1kNxR6XN9tMnFlE-189" value="" style="endArrow=none;html=1;rounded=0;fontFamily=Architects Daughter;fontSource=https%3A%2F%2Ffonts.googleapis.com%2Fcss%3Ffamily%3DArchitects%2BDaughter;fontSize=16;startSize=14;endSize=14;sourcePerimeterSpacing=8;targetPerimeterSpacing=8;curved=1;entryX=0.444;entryY=1;entryDx=0;entryDy=0;entryPerimeter=0;exitX=0;exitY=0.5;exitDx=0;exitDy=0;" parent="1" source="sDfF-1kNxR6XN9tMnFlE-157" target="sDfF-1kNxR6XN9tMnFlE-27" edge="1">
          <mxGeometry relative="1" as="geometry">
            <mxPoint x="-51" y="598" as="sourcePoint" />
            <mxPoint x="109" y="598" as="targetPoint" />
          </mxGeometry>
        </mxCell>
        <mxCell id="sDfF-1kNxR6XN9tMnFlE-191" value="&lt;font style=&quot;font-size: 26px;&quot;&gt;1&lt;/font&gt;" style="resizable=0;html=1;whiteSpace=wrap;align=right;verticalAlign=bottom;fontFamily=Architects Daughter;fontSource=https%3A%2F%2Ffonts.googleapis.com%2Fcss%3Ffamily%3DArchitects%2BDaughter;" parent="1" connectable="0" vertex="1">
          <mxGeometry x="-262" y="462" as="geometry" />
        </mxCell>
        <mxCell id="sDfF-1kNxR6XN9tMnFlE-192" value="&lt;font style=&quot;font-size: 26px;&quot;&gt;1&lt;/font&gt;" style="resizable=0;html=1;whiteSpace=wrap;align=right;verticalAlign=bottom;fontFamily=Architects Daughter;fontSource=https%3A%2F%2Ffonts.googleapis.com%2Fcss%3Ffamily%3DArchitects%2BDaughter;" parent="1" connectable="0" vertex="1">
          <mxGeometry x="187" y="520" as="geometry" />
        </mxCell>
        <mxCell id="sDfF-1kNxR6XN9tMnFlE-195" value="&lt;font style=&quot;font-size: 26px;&quot;&gt;1&lt;/font&gt;" style="resizable=0;html=1;whiteSpace=wrap;align=right;verticalAlign=bottom;fontFamily=Architects Daughter;fontSource=https%3A%2F%2Ffonts.googleapis.com%2Fcss%3Ffamily%3DArchitects%2BDaughter;" parent="1" connectable="0" vertex="1">
          <mxGeometry x="-369" y="494" as="geometry" />
        </mxCell>
        <mxCell id="sDfF-1kNxR6XN9tMnFlE-198" value="&lt;font style=&quot;font-size: 26px;&quot;&gt;1&lt;/font&gt;" style="resizable=0;html=1;whiteSpace=wrap;align=right;verticalAlign=bottom;fontFamily=Architects Daughter;fontSource=https%3A%2F%2Ffonts.googleapis.com%2Fcss%3Ffamily%3DArchitects%2BDaughter;" parent="1" connectable="0" vertex="1">
          <mxGeometry x="86" y="771.08" as="geometry" />
        </mxCell>
        <mxCell id="sDfF-1kNxR6XN9tMnFlE-201" value="&lt;font style=&quot;font-size: 26px;&quot;&gt;1&lt;/font&gt;" style="resizable=0;html=1;whiteSpace=wrap;align=right;verticalAlign=bottom;fontFamily=Architects Daughter;fontSource=https%3A%2F%2Ffonts.googleapis.com%2Fcss%3Ffamily%3DArchitects%2BDaughter;" parent="1" connectable="0" vertex="1">
          <mxGeometry x="-462" y="816" as="geometry" />
        </mxCell>
        <mxCell id="sDfF-1kNxR6XN9tMnFlE-206" value="" style="shape=tableRow;horizontal=0;startSize=0;swimlaneHead=0;swimlaneBody=0;fillColor=none;collapsible=0;dropTarget=0;points=[[0,0.5],[1,0.5]];portConstraint=eastwest;top=0;left=0;right=0;bottom=0;fontFamily=Architects Daughter;fontSource=https%3A%2F%2Ffonts.googleapis.com%2Fcss%3Ffamily%3DArchitects%2BDaughter;" parent="1" vertex="1">
          <mxGeometry x="95" y="932" width="217.31395348837222" height="28" as="geometry" />
        </mxCell>
      </root>
    </mxGraphModel>
  </diagram>
</mxfile>
